# AST/ASF file generated using VICON BodyLanguage
# -----------------------------------------------
:version 1.10
:name VICON
:units
  mass 1.0
  length 0.45
  angle deg
:documentation
   .ast/.asf automatically generated from VICON data using
   VICON BodyBuilder and BodyLanguage model FoxedUp or BRILLIANT.MOD
:root
   order TX TY TZ RX RY RZ
   axis XYZ
   position 0 0 0  
   orientation 0 0 0 
:bonedata
  begin
     id 1 
     name lhipjoint
     direction 0.711131 -0.61297 0.344326 
     length 2.29162 
     axis 0 0 0  XYZ
  end
  begin
     id 2 
     name lfemur
     direction 0.34202 -0.939693 0  
     length 6.71424  
     axis 0 0 20  XYZ
    dof rx ry rz
    limits (-160.0 20.0)
           (-70.0 70.0)
           (-60.0 70.0)
  end
  begin
     id 3 
     name ltibia
     direction 0.34202 -0.939693 0   
     length 6.7087   
     axis 0 0 20   XYZ
    dof rx
    limits (-10.0 170.0)
  end
  begin
     id 4 
     name lfoot
     direction 0.0230374 -0.0632947 0.997729   
     length 1.56743   
     axis -90 7.62852e-016 20   XYZ
    dof rx rz
    limits (-45.0 90.0)
           (-70.0 20.0)
  end
  begin
     id 5 
     name ltoes
     direction 1.53585e-011 -4.21885e-011 1   
     length 0.802914   
     axis -90 7.62852e-016 20   XYZ
    dof rx
    limits (-90.0 20.0)
  end
  begin
     id 6 
     name rhipjoint
     direction -0.733192 -0.592884 0.333043   
     length 2.36925  
     axis 0 0 0  XYZ 
  end
  begin
     id 7 
     name rfemur
     direction -0.34202 -0.939693 0   
     length 6.67027   
     axis 0 0 -20   XYZ
    dof rx ry rz
    limits (-160.0 20.0)
           (-70.0 70.0)
           (-70.0 60.0)
  end
  begin
     id 8 
     name rtibia
     direction -0.34202 -0.939693 0   
     length 6.6862   
     axis 0 0 -20   XYZ
    dof rx
    limits (-10.0 170.0)
 end
 begin
     id 9 
     name rfoot
     direction -0.0949739 -0.260939 0.960672   
     length 1.67698  
     axis -90 -7.62852e-016 -20   XYZ
    dof rx rz
    limits (-45.0 90.0)
           (-20.0 70.0)
  end
  begin
     id 10 
     name rtoes
     direction -1.5353e-011 -4.21868e-011 1   
     length 0.846298   
     axis -90 -7.62852e-016 -20   XYZ
    dof rx
    limits (-90.0 20.0)
  end
  begin
     id 11 
     name lowerback
     direction -0.0206828 0.999785 -0.00109866   
     length 2.04382   
     axis 0 0 0   XYZ
    dof rx ry rz
    limits (-20.0 45.0)
           (-30.0 30.0)
           (-30.0 30.0)
  end
  begin
     id 12 
     name upperback
     direction -0.0105003 0.999727 -0.0208904   
     length 2.04538   
     axis 0 0 0   XYZ
    dof rx ry rz
    limits (-20.0 45.0)
           (-30.0 30.0)
           (-30.0 30.0)
  end
  begin
     id 13 
     name thorax
     direction -0.000416255 0.999808 -0.0196023   
     length 2.0399   
     axis 0 0 0   XYZ
    dof rx ry rz
    limits (-20.0 45.0)
           (-30.0 30.0)
           (-30.0 30.0)
  end
  begin
     id 14 
     name lowerneck
     direction 0.0627861 0.989205 0.13241   
     length 1.46207   
     axis 0 0 0   XYZ
    dof rx ry rz
    limits (-20.0 45.0)
           (-30.0 30.0)
           (-30.0 30.0)
  end
  begin
     id 15 
     name upperneck
     direction 0.00627179 0.994526 0.104303   
     length 1.41419   
     axis 0 0 0   XYZ
    dof rx ry rz
    limits (-20.0 45.0)
           (-30.0 30.0)
           (-30.0 30.0)
  end
  begin
     id 16
     name head
     direction -0.00443838 0.999688 0.0245968  
     length 1.50718  
     axis 0 0 0   XYZ
    dof rx ry rz
    limits (-20.0 45.0)
           (-30.0 30.0)
           (-30.0 30.0)
  end
  begin
     id 17 
     name lclavicle
     direction 0.758742 0.650995 -0.0227258  
     length 2.86888  
     axis 0 0 0   XYZ
    dof ry rz
    limits (-20.0 10.0)
           (0.0 20.0)
  end
  begin
     id 18 
     name lhumerus
     direction 1 -4.48962e-011 1.06664e-027   
     length 4.65776   
     axis -180 -30 -90   XYZ
    dof rx ry rz
    limits (-60.0 90.0)
           (-90.0 90.0)
           (-90.0 90.0)
  end
  begin
     id 19
     name lradius
     direction 1 -4.48968e-011 1.40404e-026   
     length 3.55539   
     axis -180 -30 -90   XYZ
    dof rx
    limits (-10.0 170.0)
  end
  begin
     id 20
     name lwrist
     direction 1 -4.48976e-011 3.32647e-026   
     length 1.77769   
     axis -2.20186e-014 90 90   XYZ
    dof ry
    limits (-180.0 0.0)
 end
  begin
     id 21 
     name lhand
     direction 1 -4.48982e-011 6.65293e-026   
     length 0.707264   
     axis -4.24514e-014 90 90   XYZ
    dof rx rz
    limits (-90.0 90.0)
           (-45.0 45.0)
  end
  begin
     id 22 
     name lfingers
     direction 1 -4.48966e-011 1.33059e-025   
     length 0.570215   
     axis -8.49028e-014 90 90   XYZ
    dof rx
    limits (0.0 90.0)
  end
  begin
     id 23
     name lthumb
     direction 0.707107 -6.3493e-011 0.707107   
     length 0.818718   
     axis -90 45 2.85299e-015   XYZ
    dof rx rz
    limits (-45.0 45.0)
           (-45.0 45.0)
  end
  begin
     id 24 
     name rclavicle
     direction -0.870343 0.482028 -0.100759   
     length 3.2251  
     axis 0 0 0   XYZ 
    dof ry rz
    limits (-10.0 20.0)
           (-20.0 0.0)
  end
  begin
     id 25 
     name rhumerus
     direction -1 -4.48974e-011 -9.45849e-028  
     length 4.71925   
     axis -180 30 90   XYZ
    dof rx ry rz
    limits (-90.0 60.0)
           (-90.0 90.0)
           (-90.0 90.0)
  end
  begin
     id 26 
     name rradius
     direction -1 -4.48965e-011 1.17607e-026   
     length 3.5699   
     axis -180 30 90   XYZ
    dof rx
    limits (-10.0 170.0)
  end
  begin
     id 27 
     name rwrist
     direction -1 -4.48968e-011 3.32647e-026   
     length 1.78495   
     axis -2.20186e-014 -90 -90   XYZ
    dof ry
    limits (-180.0 0.0)
  end
  begin
     id 28
     name rhand
     direction -1 -4.48995e-011 6.65293e-026   
     length 0.507757   
     axis -4.24514e-014 -90 -90   XYZ
    dof rx rz
    limits (-90.0 90.0)
           (-45.0 45.0)
  end
  begin
     id 29
     name rfingers
     direction -1 -4.48864e-011 1.33059e-025   
     length 0.409367   
     axis -8.49028e-014 -90 -90   XYZ
    dof rx
    limits (0.0 90.0)
  end
  begin
     id 30
     name rthumb
     direction -0.707107 -6.3494e-011 0.707107   
     length 0.587771   
     axis -90 -45 -2.85299e-015   XYZ
    dof rx rz
    limits (-45.0 45.0)
           (-45.0 45.0)
  end
:hierarchy
  begin
    root lhipjoint rhipjoint lowerback
    lhipjoint lfemur
    lfemur ltibia
    ltibia lfoot
    lfoot ltoes
    rhipjoint rfemur
    rfemur rtibia
    rtibia rfoot
    rfoot rtoes
    lowerback upperback
    upperback thorax
    thorax lowerneck lclavicle rclavicle
    lowerneck upperneck
    upperneck head
    lclavicle lhumerus
    lhumerus lradius
    lradius lwrist
    lwrist lhand lthumb
    lhand lfingers
    rclavicle rhumerus
    rhumerus rradius
    rradius rwrist
    rwrist rhand rthumb
    rhand rfingers
  end

#!OML:ASF E:\Steps\Project 1\Capture day 1\Session 2\Subject.ASF
:FULLY-SPECIFIED
:DEGREES
31
root 7.35727 16.2977 31.5371 -157.036 -3.12745 177.736
lowerback -29.3152 -1.71784 -7.17675
upperback -0.98375 -0.410901 -0.296709
thorax 14.3989 -0.898131 3.35836
lowerneck -5.72761 -2.39552 -1.26773
upperneck 5.89154 -3.3754 3.26768
head 2.97697 -1.6101 1.13161
rclavicle 1.54058e-015 -6.75868e-015
rhumerus -37.6942 -24.8091 -74.3852
rradius 26.7017
rwrist 4.21269
rhand -13.111 -57.7377
rfingers 7.12502
rthumb 12.9862 -87.3135
lclavicle 1.54058e-015 -6.75868e-015
lhumerus -30.4948 12.5872 79.0608
lradius 16.7377
lwrist -11.7311
lhand -19.1122 -13.2887
lfingers 7.12502
lthumb 7.19684 16.5689
rfemur -21.2272 5.12749 19.5106
rtibia 8.73328
rfoot -19.6987 -8.66565
rtoes -34.3353
lfemur -24.925 -10.3055 -20.509
ltibia 13.6851
lfoot -10.3361 2.02302
ltoes -43.716
32
root 7.35391 16.298 31.5345 -157.021 -3.09984 177.638
lowerback -29.4298 -1.7714 -7.33333
upperback -0.919569 -0.41181 -0.292401
thorax 14.5253 -0.9128 3.44577
lowerneck -6.37772 -2.25068 -1.24724
upperneck 6.67627 -3.18081 2.95436
head 3.35772 -1.51385 1.02922
rclavicle 2.20651e-014 -4.21423e-014
rhumerus -37.4288 -24.3348 -74.7565
rradius 26.9779
rwrist 3.41445
rhand -13.6091 -56.8944
rfingers 7.12502
rthumb 12.506 -86.5001
lclavicle 2.20651e-014 -4.21423e-014
lhumerus -30.2662 12.028 79.4241
lradius 17.0386
lwrist -11.0458
lhand -19.2075 -13.2969
lfingers 7.12502
lthumb 7.10483 16.5638
rfemur -21.2257 4.96092 19.4157
rtibia 8.73356
rfoot -19.6764 -8.64708
rtoes -34.8059
lfemur -24.8766 -10.2577 -20.6594
ltibia 13.5943
lfoot -10.3101 1.99651
ltoes -43.8446
33
root 7.35179 16.2982 31.534 -157.084 -3.11328 177.666
lowerback -29.3783 -1.77689 -7.37337
upperback -0.88445 -0.405667 -0.25282
thorax 14.5429 -0.912002 3.5148
lowerneck -7.30829 -2.08497 -1.31015
upperneck 7.87057 -2.96068 2.64482
head 3.94803 -1.40857 0.942646
rclavicle 1.09332e-015 -7.7526e-015
rhumerus -37.2505 -24.2193 -74.8226
rradius 27.0015
rwrist 3.30896
rhand -13.5146 -54.312
rfingers 7.12502
rthumb 12.5971 -83.9122
lclavicle 1.09332e-015 -7.7526e-015
lhumerus -30.09 11.4791 79.7749
lradius 17.3757
lwrist -10.4688
lhand -19.218 -13.3609
lfingers 7.12502
lthumb 7.09473 16.5002
rfemur -21.1355 5.08816 19.4043
rtibia 8.69307
rfoot -19.7345 -8.58457
rtoes -33.7499
lfemur -24.754 -10.2084 -20.6471
ltibia 13.4931
lfoot -10.2893 1.94193
ltoes -43.795
34
root 7.35082 16.298 31.5343 -157.138 -3.15641 177.747
lowerback -29.2748 -1.76809 -7.34965
upperback -0.895713 -0.415867 -0.193425
thorax 14.485 -0.912865 3.56507
lowerneck -6.86832 -2.22655 -1.11082
upperneck 7.13793 -3.14841 2.66943
head 3.60314 -1.49862 0.908506
rclavicle 1.04362e-015 2.50469e-014
rhumerus -37.1398 -24.5435 -74.5845
rradius 26.7575
rwrist 3.98094
rhand -13.4303 -52.1733
rfingers 7.12502
rthumb 12.6784 -81.7684
lclavicle 1.04362e-015 2.50469e-014
lhumerus -30.0235 10.835 80.1539
lradius 17.7726
lwrist -9.87491
lhand -19.2778 -13.1204
lfingers 7.12502
lthumb 7.03697 16.7426
rfemur -21.0659 5.32049 19.4487
rtibia 8.66037
rfoot -19.7623 -8.66576
rtoes -33.0698
lfemur -24.7028 -10.2062 -20.5433
ltibia 13.4922
lfoot -10.3077 1.8871
ltoes -43.7105
